<?xml version="1.0" encoding="UTF-8" standalone="no"?>
<svg width="161px" height="163px" viewBox="0 0 161 163" version="1.1" xmlns="http://www.w3.org/2000/svg" xmlns:xlink="http://www.w3.org/1999/xlink">
    <!-- Generator: sketchtool 49.3 (51167) - http://www.bohemiancoding.com/sketch -->
    <title>BFBAABF5-2840-4A1B-A92A-32D61005BCBB</title>
    <desc>Created with sketchtool.</desc>
    <defs>
        <ellipse id="path-1" cx="72.3554217" cy="77.7108434" rx="70.9337349" ry="71.3855422"></ellipse>
        <filter x="-10.6%" y="-10.5%" width="121.1%" height="121.0%" filterUnits="objectBoundingBox" id="filter-2">
            <feMorphology radius="1.5" operator="dilate" in="SourceAlpha" result="shadowSpreadOuter1"></feMorphology>
            <feOffset dx="0" dy="0" in="shadowSpreadOuter1" result="shadowOffsetOuter1"></feOffset>
            <feGaussianBlur stdDeviation="3.5" in="shadowOffsetOuter1" result="shadowBlurOuter1"></feGaussianBlur>
            <feColorMatrix values="0 0 0 0 0.0665667142   0 0 0 0 0.406914328   0 0 0 0 0.396442094  0 0 0 0.4 0" type="matrix" in="shadowBlurOuter1"></feColorMatrix>
        </filter>
    </defs>
    <g id="Home-Screen" stroke="none" stroke-width="1" fill="none" fill-rule="evenodd">
        <g id="Clock-In_final" transform="translate(-99.000000, -258.000000)">
            <g id="Group-2" transform="translate(88.000000, 245.000000)">
                <g id="clockin" transform="translate(19.000000, 17.000000)">
                    <rect id="Rectangle-9" fill="#0ABAB5" transform="translate(61.963855, 4.518072) rotate(-9.000000) translate(-61.963855, -4.518072) " x="52.9277108" y="1.80722892" width="18.0722892" height="5.42168675" rx="2.71084337"></rect>
                    <rect id="Rectangle-9" fill="#0ABAB5" transform="translate(61.963855, 150.903614) scale(-1, 1) rotate(-8.000000) translate(-61.963855, -150.903614) " x="52.9277108" y="148.192771" width="18.0722892" height="5.42168675" rx="2.71084337"></rect>
                    <path d="M58.3493976,150.618917 L58.3493976,4.80276933 C62.6737597,4.02210643 67.1283621,3.61445783 71.6784652,3.61445783 C112.725115,3.61445783 146,36.7885396 146,77.7108434 C146,118.633147 112.725115,151.807229 71.6784652,151.807229 C67.1283621,151.807229 62.6737597,151.39958 58.3493976,150.618917 Z" id="Combined-Shape" stroke="#0ABAB5" stroke-width="7"></path>
                    <g id="hide">
                        <use fill="black" fill-opacity="1" filter="url(#filter-2)" xlink:href="#path-1"></use>
                        <use fill="#DAF3ED" fill-rule="evenodd" xlink:href="#path-1"></use>
                    </g>
                    <rect id="edit" fill="#0ABAB5" x="11.8795181" y="65.0120482" width="43.7599983" height="5.42168675" rx="2.71084337"></rect>
                    <text id="IN" font-family="OpenSans-Bold, Open Sans" font-size="32" font-weight="bold" fill="#0ABAB5">
                        <tspan x="74.1230233" y="123.963855">IN</tspan>
                    </text>
                    <rect id="Rectangle-9" fill="#0ABAB5" x="35.7590361" y="26.7228916" width="19.8795181" height="5.42168675" rx="2.71084337"></rect>
                    <rect id="Rectangle-9" fill="#0ABAB5" x="23.1084337" y="45.7951807" width="32.5301205" height="5.42168675" rx="2.71084337"></rect>
                    <rect id="Rectangle-9" fill="#0ABAB5" x="0" y="85.9036145" width="55" height="5.42168675" rx="2.71084337"></rect>
                    <rect id="Rectangle-9" fill="#0ABAB5" x="15.8795181" y="107.012048" width="39.7590361" height="5.42168675" rx="2.71084337"></rect>
                    <rect id="Rectangle-9" fill="#0ABAB5" x="31.2409639" y="125.987952" width="23.4939759" height="5.42168675" rx="2.71084337"></rect>
                    <rect id="Rectangle-9" fill="#0ABAB5" transform="translate(73.710843, 8.584337) rotate(-90.000000) translate(-73.710843, -8.584337) " x="68.2891566" y="6.3253012" width="10.8433735" height="4.51807229" rx="2.25903614"></rect>
                    <rect id="Rectangle-9" fill="#0ABAB5" transform="translate(105.337349, 16.716867) rotate(-64.000000) translate(-105.337349, -16.716867) " x="99.9156627" y="14.4578313" width="10.8433735" height="4.51807229" rx="2.25903614"></rect>
                    <rect id="Rectangle-9" fill="#0ABAB5" transform="translate(131.542169, 42.921687) rotate(-38.000000) translate(-131.542169, -42.921687) " x="126.120482" y="40.6626506" width="10.8433735" height="4.51807229" rx="2.25903614"></rect>
                    <rect id="Rectangle-9" fill="#0ABAB5" transform="translate(129.040482, 19.921687) rotate(-46.000000) translate(-129.040482, -19.921687) " x="124.120482" y="17.6626506" width="9.84000015" height="4.51807229" rx="2.25903614"></rect>
                    <rect id="Rectangle-9" fill="#0ABAB5" transform="translate(139.674699, 76.355422) rotate(-180.000000) translate(-139.674699, -76.355422) " x="134.253012" y="74.0963855" width="10.8433735" height="4.51807229" rx="2.25903614"></rect>
                    <rect id="Rectangle-9" fill="#0ABAB5" transform="translate(132.445783, 108.885542) rotate(31.000000) translate(-132.445783, -108.885542) " x="127.024096" y="106.626506" width="10.8433735" height="4.51807229" rx="2.25903614"></rect>
                    <rect id="Rectangle-9" fill="#0ABAB5" transform="translate(108.951807, 135.090361) rotate(59.000000) translate(-108.951807, -135.090361) " x="103.53012" y="132.831325" width="10.8433735" height="4.51807229" rx="2.25903614"></rect>
                    <rect id="Rectangle-9" fill="#0ABAB5" transform="translate(73.710843, 145.030120) rotate(-90.000000) translate(-73.710843, -145.030120) " x="68.2891566" y="142.771084" width="10.8433735" height="4.51807229" rx="2.25903614"></rect>
                    <g id="tick" transform="translate(78.024005, 56.487035) rotate(-47.000000) translate(-78.024005, -56.487035) translate(70.524005, 23.487035)">
                        <path d="M10.3112178,60 C10.3531974,60.2442991 10.375,60.4947993 10.375,60.75 C10.375,63.3733526 8.07113194,65.5 5.22916667,65.5 C2.38720139,65.5 0.0833333333,63.3733526 0.0833333333,60.75 C0.0833333333,60.4947993 0.105135925,60.2442991 0.147115522,60 L0.0833333333,60 L5.22916667,19 L10.375,60 L10.3112178,60 Z" id="Combined-Shape" stroke="#0ABAB5" stroke-width="4" fill="#DAF3ED"></path>
                        <rect id="Rectangle-10" fill="#DAF3ED" x="1.82799634" y="7.04936286" width="13" height="17"></rect>
                        <ellipse id="Oval-5" stroke="#0ABAB5" fill="#0ABAB5" cx="5.22916667" cy="24.75" rx="1.89583333" ry="1.75"></ellipse>
                        <rect id="Rectangle-11" fill="#DAF3ED" x="4.00358624" y="0.677121357" width="9" height="7"></rect>
                    </g>
                </g>
            </g>
        </g>
    </g>
</svg>